<svg xmlns="http://www.w3.org/2000/svg" viewBox="0 0 938 716"><defs><clipPath id="b0"><rect x="0" y="0.00" width="938" height="143.70"/></clipPath><clipPath id="b1"><rect x="0" y="143.20" width="938" height="143.70"/></clipPath><clipPath id="b2"><rect x="0" y="286.40" width="938" height="143.70"/></clipPath><clipPath id="b3"><rect x="0" y="429.60" width="938" height="143.70"/></clipPath><clipPath id="b4"><rect x="0" y="572.80" width="938" height="143.70"/></clipPath></defs><g clip-path="url(#b0)"><path d="M778 0H510L383 214H379L252 0H4L250 364L28 688H295L399 512H403L508 688H755L532 363Z" fill="#111111" transform="translate(80 716) scale(1 -1)"/></g><g clip-path="url(#b1)"><path d="M778 0H510L383 214H379L252 0H4L250 364L28 688H295L399 512H403L508 688H755L532 363Z" fill="#111111" transform="translate(45 716) scale(1 -1)"/></g><g clip-path="url(#b2)"><path d="M778 0H510L383 214H379L252 0H4L250 364L28 688H295L399 512H403L508 688H755L532 363Z" fill="#ff4d00" transform="translate(107 716) scale(1 -1)"/></g><g clip-path="url(#b3)"><path d="M778 0H510L383 214H379L252 0H4L250 364L28 688H295L399 512H403L508 688H755L532 363Z" fill="#111111" transform="translate(62 716) scale(1 -1)"/></g><g clip-path="url(#b4)"><path d="M778 0H510L383 214H379L252 0H4L250 364L28 688H295L399 512H403L508 688H755L532 363Z" fill="#111111" transform="translate(90 716) scale(1 -1)"/></g></svg>